<svg width="85" height="79" viewBox="0 0 85 79" fill="none" xmlns="http://www.w3.org/2000/svg">
<path d="M83.0119 47.8379C88.1041 26.8651 74.0479 6.00358 51.6166 1.24251C29.1853 -3.51856 6.87311 9.6237 1.78095 30.5966C-3.3112 51.5694 10.745 72.4309 33.1763 77.192C55.6076 81.953 77.9198 68.8108 83.0119 47.8379Z" fill="#F4FFFF"/>
<path d="M58.4432 13.6613C55.68 12.8487 54.8109 9.74436 52.4711 8.24423C50.8334 7.29199 48.8794 6.93365 46.9783 7.23693C45.0773 7.54021 43.3609 8.48405 42.1536 9.89016C40.0812 12.7654 40.8388 16.9742 37.6968 19.0785C35.045 20.8912 31.1676 20.0369 27.8027 20.4119C26.1561 20.5731 24.5669 21.0688 23.1466 21.8642C21.7263 22.6595 20.509 23.7353 19.5798 25.0165C18.1091 27.1 18.265 30.6212 21.0505 31.2671C21.7866 31.3998 22.5429 31.3998 23.2789 31.2671C25.3851 31.0017 27.4363 30.4397 29.3626 29.6003C30.1052 29.1968 30.9352 28.9547 31.7915 28.8918C33.7747 28.8918 34.7107 30.9754 34.889 32.6838C35.0673 34.3923 35.1117 36.3509 36.7608 37.2885C37.6263 37.6561 38.5949 37.7552 39.525 37.5715C40.4552 37.3879 41.2981 36.931 41.9307 36.2676C43.0483 34.9519 43.9842 33.5099 44.7162 31.9755C46.2492 29.422 48.7069 27.4641 51.6466 26.4541C53.1625 25.9431 54.7843 25.7675 56.385 25.941C57.9856 26.1145 59.5215 26.6324 60.8721 27.4542C61.964 28.2043 62.8108 29.1627 63.9473 29.8711C64.4972 30.2588 65.1423 30.5114 65.8235 30.606C66.5047 30.7007 67.2004 30.6343 67.847 30.4129C68.4748 30.0515 69.0263 29.5854 69.4739 29.0377C70.4797 27.8586 71.8088 26.9567 73.3197 26.4283C74.8306 25.9 76.4666 25.7649 78.0532 26.0374C79.9904 26.6744 81.588 27.9888 82.51 29.7044C80.4695 21.9635 75.9342 14.9957 69.5183 9.7443C68.4636 11.5143 66.7733 12.8785 64.7464 13.5953C62.7195 14.3122 60.4868 14.3355 58.4432 13.6613Z" fill="url(#paint0_linear_1_782)"/>
<path d="M81.1508 50.081C76.8722 50.6019 75.4683 58.6651 73.6188 58.4151C69.8528 57.9776 68.4934 53.1021 64.9279 51.9145C61.3625 50.7269 58.1313 53.4563 56.2817 56.2899C54.4321 59.1234 53.2065 62.5405 50.2873 64.4156C49.0242 65.1527 47.6064 65.6271 46.13 65.8068C44.6536 65.9866 43.1531 65.8675 41.7303 65.4574C38.8873 64.6131 36.2462 63.2616 33.9532 61.4778C32.7992 60.3939 31.2796 59.7167 29.6524 59.561C28.7313 59.7034 27.8661 60.0686 27.1428 60.6206C26.4196 61.1725 25.8634 61.8919 25.5297 62.7071C24.5715 64.499 23.9477 69.291 22.1204 73.1247C27.5798 75.9574 33.6507 77.6062 39.8837 77.9491C46.1167 78.292 52.3523 77.3201 58.1294 75.1055C63.9065 72.8909 69.0771 69.4902 73.2587 65.155C77.4403 60.8197 80.526 55.6609 82.2873 50.0602C81.9087 50.0303 81.5278 50.0373 81.1508 50.081Z" fill="url(#paint1_linear_1_782)"/>
<g style="mix-blend-mode:multiply" opacity="0.57">
<path d="M47.7246 71.2083C39.3553 71.2098 31.1982 68.7458 24.4118 64.1662C17.6254 59.5867 12.5547 53.1244 9.91996 45.6971C7.28519 38.2699 7.22033 30.2552 9.73444 22.7914C12.2485 15.3277 17.2139 8.79432 23.9253 4.11914C17.9686 6.84226 12.7932 10.8557 8.82983 15.8258C4.86645 20.7959 2.22958 26.5789 1.1384 32.6939C0.0472245 38.8088 0.533337 45.0791 2.55632 50.983C4.5793 56.8869 8.08069 62.254 12.7693 66.6377C17.4578 71.0214 23.198 74.2951 29.5125 76.1865C35.827 78.0779 42.5332 78.5325 49.0735 77.5122C55.6137 76.492 61.7988 74.0266 67.1145 70.3209C72.4302 66.6152 76.7229 61.7765 79.6354 56.2071C75.9329 60.8579 71.1199 64.636 65.5798 67.2404C60.0397 69.8448 53.9256 71.2034 47.7246 71.2083Z" fill="#90DCE0"/>
</g>
<path opacity="0.46" d="M78.09 29.1763C80.8711 24.8588 73.81 16.1129 62.3185 9.64175C50.827 3.17059 39.2569 1.42471 36.4757 5.74215C33.6945 10.0596 40.7555 18.8054 52.247 25.2766C63.7385 31.7477 75.3088 33.4937 78.09 29.1763Z" fill="white"/>
<defs>
<linearGradient id="paint0_linear_1_782" x1="62.1869" y1="15.4532" x2="19.3273" y2="68.1881" gradientUnits="userSpaceOnUse">
<stop stop-color="#90DCE0"/>
<stop offset="1" stop-color="#D6FCE4"/>
</linearGradient>
<linearGradient id="paint1_linear_1_782" x1="80.4377" y1="30.2876" x2="37.6" y2="83.0208" gradientUnits="userSpaceOnUse">
<stop stop-color="#90DCE0"/>
<stop offset="1" stop-color="#D6FCE4"/>
</linearGradient>
</defs>
</svg>
