<svg width="115" height="108" viewBox="0 0 115 108" fill="none" xmlns="http://www.w3.org/2000/svg">
<path d="M112.658 68.2111C121.249 39.7499 103.536 10.1663 73.096 2.13405C42.6557 -5.89819 11.0147 10.6626 2.42392 39.1238C-6.16688 67.5849 11.5457 97.1686 41.986 105.201C72.4263 113.233 104.067 96.6722 112.658 68.2111Z" fill="url(#paint0_radial_1_782)"/>
<path d="M11.3746 36.507C15.6532 37.3404 19.7979 38.5905 24.0764 39.5281C26.348 40.0653 28.7107 40.1786 31.0292 39.8614C32.1844 39.697 33.285 39.2914 34.2495 38.6745C35.214 38.0577 36.0175 37.2457 36.6002 36.2987C39.3857 31.1732 33.0347 24.7768 35.5528 19.6305C36.0053 18.717 36.6988 17.9261 37.5681 17.332C38.4373 16.7379 39.4538 16.3602 40.5221 16.2344C42.3271 16.0677 44.2658 16.5886 45.848 15.8177C46.5629 15.3616 47.16 14.762 47.5956 14.0628C48.0312 13.3635 48.2945 12.5821 48.3661 11.7756C48.6894 9.95461 48.6894 8.09616 48.3661 6.27513C47.9844 4.91675 47.8414 3.50938 47.9427 2.1081C47.9975 1.77211 48.0947 1.44345 48.2324 1.12891C38.1678 2.69688 28.7325 6.74562 20.8985 12.858C13.0646 18.9703 7.11553 26.9252 3.66431 35.9028C6.25082 35.8218 8.83863 36.0246 11.3746 36.507Z" fill="url(#paint1_linear_1_782)"/>
<path d="M92.7557 11.5677L92.5329 11.7969C90.9462 12.9372 89.0603 13.6569 87.0733 13.8804C83.1362 14.677 79.3699 16.0855 75.9313 18.0474C74.0458 19.0605 72.5018 20.5474 71.4745 22.3395C70.9665 23.2467 70.7608 24.2753 70.8839 25.2928C71.0071 26.3104 71.4534 27.2701 72.1653 28.0483C74.2377 29.986 77.6026 29.4651 80.5218 29.4859C84.9722 29.5411 89.2246 31.2151 92.3769 34.153C94.4271 36.0698 95.8532 39.4451 93.7808 41.3411C91.7084 43.2371 85.8031 44.9248 87.0956 48.5084C88.3881 52.0921 96.0092 49.196 100.466 52.6755C104.923 56.1549 106.394 61.6555 100.466 65.9892C97.6786 67.8294 94.5048 69.0949 91.1549 69.702C87.8049 70.309 84.3552 70.2437 81.0343 69.5103C71.7864 67.1351 66.8839 57.7176 58.7502 52.8422C55.4522 50.8629 50.483 49.9669 48.1208 52.8422C46.1153 55.3424 47.4523 59.0928 49.5024 61.4471C51.5526 63.8015 54.3158 65.9891 55.3855 68.9477C55.8538 70.293 55.9482 71.7275 55.6597 73.1163C55.3712 74.5051 54.7092 75.8024 53.7363 76.8859C53.3294 77.3897 52.8093 77.8038 52.2125 78.099C51.6156 78.3942 50.9567 78.5634 50.2823 78.5944C48.5984 78.3173 47.0744 77.4903 45.9815 76.2609C41.1682 72.2189 33.859 70.0104 28.1543 72.7815C26.4446 73.7488 24.9678 75.0368 23.8172 76.5645C22.6665 78.0921 21.8671 79.8261 21.4691 81.6571C20.7336 85.3269 20.7336 89.0925 21.4691 92.7623C21.6028 93.6374 21.8033 94.5334 22.0262 95.4293C27.9258 99.7906 34.6864 103.023 41.922 104.941C49.1576 106.86 56.7265 107.427 64.1965 106.611C71.6666 105.794 78.8915 103.61 85.4587 100.183C92.026 96.7557 97.807 92.1528 102.472 86.6368C107.136 81.1208 110.593 74.7998 112.645 68.0347C114.697 61.2695 115.304 54.1926 114.43 47.2083C113.557 40.2239 111.221 33.4688 107.556 27.3285C103.89 21.1883 98.9673 15.7832 93.0677 11.4219L92.7557 11.5677Z" fill="url(#paint2_linear_1_782)"/>
<g style="mix-blend-mode:multiply" opacity="0.57">
<path d="M65.1013 98.0329C53.5899 98.0345 42.3705 94.645 33.0365 88.3459C23.7024 82.0468 16.7283 73.1582 13.1043 62.9425C9.48037 52.7268 9.39093 41.7032 12.8486 31.4372C16.3063 21.1712 23.1354 12.1847 32.3661 5.75391C24.1917 9.5096 17.0933 15.034 11.66 21.8686C6.22671 28.7032 2.61524 36.6509 1.12528 45.0519C-0.364675 53.453 0.309849 62.0651 3.09295 70.1735C5.87606 78.282 10.6874 85.6529 17.1277 91.6744C23.568 97.696 31.4515 102.195 40.1239 104.797C48.7962 107.399 58.0072 108.03 66.9924 106.636C75.9777 105.243 84.4781 101.867 91.7879 96.7867C99.0978 91.7066 105.006 85.0698 109.023 77.4269C103.932 83.8298 97.3068 89.0286 89.6796 92.6069C82.0524 96.1852 73.6349 98.0436 65.1013 98.0329Z" fill="#CD6FAE"/>
</g>
<path opacity="0.46" d="M106.884 40.1736C103.051 46.1116 87.1404 43.7156 71.2296 34.8189C55.3188 25.9223 45.6921 13.9838 49.5249 7.9208C53.3578 1.85777 69.2686 4.37873 85.1794 13.2962C101.09 22.2136 110.717 34.2356 106.884 40.1736Z" fill="#DAB7B1"/>
<defs>
<radialGradient id="paint0_radial_1_782" cx="0" cy="0" r="1" gradientUnits="userSpaceOnUse" gradientTransform="translate(61.6791 37.5656) scale(61.7937 57.7759)">
<stop stop-color="#D394AF"/>
<stop offset="1" stop-color="#CC6BAE"/>
</radialGradient>
<linearGradient id="paint1_linear_1_782" x1="3.68659" y1="20.5264" x2="48.6112" y2="20.5264" gradientUnits="userSpaceOnUse">
<stop stop-color="#D291AF"/>
<stop offset="1" stop-color="#D5A2B0"/>
</linearGradient>
<linearGradient id="paint2_linear_1_782" x1="20.6446" y1="59.4886" x2="114.884" y2="59.4886" gradientUnits="userSpaceOnUse">
<stop stop-color="#D291AF"/>
<stop offset="1" stop-color="#D5A2B0"/>
</linearGradient>
</defs>
</svg>
