<svg width="75" height="72" viewBox="0 0 75 72" fill="none" xmlns="http://www.w3.org/2000/svg">
<g clip-path="url(#clip0_1_11216)">
<rect opacity="0.1" x="0.100952" y="0.416016" width="70" height="70" rx="35" fill="white"/>
</g>
<path d="M53.8627 35.1841C53.8627 25.0402 45.6439 16.8214 35.5 16.8214C25.3561 16.8214 17.1373 25.0402 17.1373 35.1841C17.1373 44.3654 23.8012 51.9919 32.6123 53.3247V40.5152H27.9476V35.1841H32.6123V31.1857C32.6123 26.5951 35.3519 24.0036 39.4983 24.0036C41.5715 24.0036 43.6448 24.3738 43.6448 24.3738V28.8904H41.3494C39.0541 28.8904 38.3136 30.2972 38.3136 31.7781V35.1841H43.4226L42.6082 40.5152H38.3136V53.3247C47.1248 51.9919 53.8627 44.3654 53.8627 35.1841Z" fill="white"/>
<defs>
<clipPath id="clip0_1_11216">
<rect width="74.3253" height="71.2284" fill="white" transform="translate(0.100952 0.416016)"/>
</clipPath>
</defs>
</svg>
