<svg width="75" height="72" viewBox="0 0 75 72" fill="none" xmlns="http://www.w3.org/2000/svg">
<g clip-path="url(#clip0_1_11211)">
<rect opacity="0.1" y="0.416016" width="70" height="70" rx="35" fill="white"/>
</g>
<path d="M34.5 27.5697C29.7405 27.5697 25.9478 31.4367 25.9478 36.1219C25.9478 40.8814 29.7405 44.6741 34.5 44.6741C39.1851 44.6741 43.0522 40.8814 43.0522 36.1219C43.0522 31.4367 39.1851 27.5697 34.5 27.5697ZM34.5 41.6994C31.4509 41.6994 28.9225 39.2453 28.9225 36.1219C28.9225 33.0728 31.3766 30.6187 34.5 30.6187C37.5491 30.6187 40.0032 33.0728 40.0032 36.1219C40.0032 39.2453 37.5491 41.6994 34.5 41.6994ZM45.3576 27.2722C45.3576 26.1567 44.4652 25.2643 43.3497 25.2643C42.2342 25.2643 41.3418 26.1567 41.3418 27.2722C41.3418 28.3877 42.2342 29.2801 43.3497 29.2801C44.4652 29.2801 45.3576 28.3877 45.3576 27.2722ZM51.0095 29.2801C50.8608 26.6029 50.2659 24.2231 48.3323 22.2896C46.3988 20.356 44.019 19.7611 41.3418 19.6124C38.5902 19.4636 30.3354 19.4636 27.5838 19.6124C24.9066 19.7611 22.6012 20.356 20.5933 22.2896C18.6598 24.2231 18.0648 26.6029 17.9161 29.2801C17.7674 32.0317 17.7674 40.2864 17.9161 43.038C18.0648 45.7153 18.6598 48.0206 20.5933 50.0286C22.6012 51.9621 24.9066 52.557 27.5838 52.7058C30.3354 52.8545 38.5902 52.8545 41.3418 52.7058C44.019 52.557 46.3988 51.9621 48.3323 50.0286C50.2659 48.0206 50.8608 45.7153 51.0095 43.038C51.1583 40.2864 51.1583 32.0317 51.0095 29.2801ZM47.4399 45.9384C46.9193 47.4257 45.7295 48.5412 44.3165 49.1361C42.0855 50.0286 36.8798 49.8055 34.5 49.8055C32.0459 49.8055 26.8402 50.0286 24.6835 49.1361C23.1962 48.5412 22.0807 47.4257 21.4857 45.9384C20.5933 43.7817 20.8164 38.576 20.8164 36.1219C20.8164 33.7421 20.5933 28.5364 21.4857 26.3054C22.0807 24.8924 23.1962 23.7769 24.6835 23.182C26.8402 22.2896 32.0459 22.5127 34.5 22.5127C36.8798 22.5127 42.0855 22.2896 44.3165 23.182C45.7295 23.7026 46.845 24.8924 47.4399 26.3054C48.3323 28.5364 48.1092 33.7421 48.1092 36.1219C48.1092 38.576 48.3323 43.7817 47.4399 45.9384Z" fill="white"/>
<defs>
<clipPath id="clip0_1_11211">
<rect width="74.3253" height="71.2284" fill="white" transform="translate(0 0.416016)"/>
</clipPath>
</defs>
</svg>
