<svg width="120" height="112" viewBox="0 0 120 112" fill="none" xmlns="http://www.w3.org/2000/svg">
<path d="M101.805 95.5408C125.084 73.7753 125.084 38.4863 101.805 16.7208C78.5261 -5.04466 40.7831 -5.04458 17.504 16.7209C-5.77506 38.4864 -5.77506 73.7753 17.504 95.5408C40.7831 117.306 78.526 117.306 101.805 95.5408Z" fill="url(#paint0_radial_1_782)"/>
<path d="M88.4614 7.3418C60.5469 15.3008 32.833 23.9127 5.31958 33.1775C2.11706 39.811 0.33792 46.9676 0.0828857 54.2418L100.562 15.6134C96.9128 12.3954 92.8478 9.61661 88.4614 7.3418Z" fill="url(#paint1_linear_1_782)"/>
<path d="M20.8073 98.3914C25.4764 102.151 30.7378 105.215 36.4061 107.475C61.3345 98.8775 86.4561 90.7727 111.771 83.1609C114.027 79.3772 115.793 75.3554 117.03 71.1807C84.6586 79.2508 52.5843 88.3211 20.8073 98.3914Z" fill="url(#paint2_linear_1_782)"/>
<path d="M113.709 32.6562C80.8625 41.4904 49.598 55.8249 16.9296 65.6382C11.9379 67.1384 6.90169 68.5343 1.82092 69.7011C3.04574 74.2761 4.88786 78.6868 7.30285 82.8272C43.9155 69.2219 80.5952 55.7415 117.609 43.1363C116.682 39.5313 115.375 36.0209 113.709 32.6562Z" fill="url(#paint3_linear_1_782)"/>
<g style="mix-blend-mode:multiply" opacity="0.57">
<path d="M67.4478 102.142C55.4697 102.136 43.7977 98.6039 34.0877 92.0464C24.3776 85.4889 17.1225 76.2392 13.3517 65.6094C9.58092 54.9795 9.48588 43.5092 13.0801 32.826C16.6743 22.1428 23.7753 12.7891 33.3755 6.0918C24.8675 10.0018 17.4795 15.7527 11.825 22.8673C6.17043 29.9818 2.41235 38.2547 0.862624 46.9994C-0.687103 55.744 0.0163043 64.7082 2.91435 73.1477C5.8124 81.5873 10.8215 89.2587 17.526 95.5256C24.2305 101.792 32.437 106.474 41.4642 109.181C50.4915 111.888 60.0791 112.543 69.4314 111.092C78.7837 109.641 87.6309 106.124 95.2386 100.836C102.846 95.5467 108.995 88.6376 113.175 80.6817C107.871 87.3451 100.973 92.7562 93.0335 96.4825C85.0937 100.209 76.3317 102.147 67.4478 102.142Z" fill="#9E0D01"/>
</g>
<path opacity="0.46" d="M110.924 41.9074C106.957 48.158 90.378 45.5953 73.91 36.3236C57.4421 27.052 47.3474 14.5299 51.3363 8.3419C55.3251 2.15385 71.8822 4.65418 88.3501 13.9258C104.818 23.1975 114.913 35.7194 110.924 41.9074Z" fill="#DD4F1C"/>
<defs>
<radialGradient id="paint0_radial_1_782" cx="0" cy="0" r="1" gradientUnits="userSpaceOnUse" gradientTransform="translate(69.6477 16.2517) scale(90.5401 84.6533)">
<stop stop-color="#9F2F0B"/>
<stop offset="1" stop-color="#9D0000"/>
</radialGradient>
<linearGradient id="paint1_linear_1_782" x1="0.0828857" y1="30.8022" x2="100.562" y2="30.8022" gradientUnits="userSpaceOnUse">
<stop stop-color="#9F2C0A"/>
<stop offset="1" stop-color="#DC3C0E"/>
</linearGradient>
<linearGradient id="paint2_linear_1_782" x1="20.8073" y1="89.3281" x2="117.03" y2="89.3281" gradientUnits="userSpaceOnUse">
<stop stop-color="#9F2C0A"/>
<stop offset="1" stop-color="#DC3C0E"/>
</linearGradient>
<linearGradient id="paint3_linear_1_782" x1="1.82092" y1="57.7417" x2="117.609" y2="57.7417" gradientUnits="userSpaceOnUse">
<stop stop-color="#9F2C0A"/>
<stop offset="1" stop-color="#DC3C0E"/>
</linearGradient>
</defs>
</svg>
