<svg width="155" height="145" viewBox="0 0 155 145" fill="none" xmlns="http://www.w3.org/2000/svg">
<path d="M152.246 88.3317C161.786 49.6359 135.969 11.0362 94.5819 2.11676C53.1952 -6.80264 11.9111 17.3359 2.37148 56.0317C-7.16818 94.7275 18.649 133.327 60.0357 142.247C101.422 151.166 142.706 127.028 152.246 88.3317Z" fill="#599ED9"/>
<path d="M2.93892 53.2874C2.83839 53.5787 2.83839 53.8921 2.93892 54.1833L3.34002 52.8291C3.19238 52.9708 3.05819 53.1241 2.93892 53.2874Z" fill="#7FD6E6"/>
<path d="M44.6321 133.587C44.7658 131.649 44.8772 129.732 45.0109 127.794L47.529 125.711C47.142 125.601 46.7906 125.402 46.5065 125.133C46.2224 124.864 46.0147 124.532 45.9023 124.169L48.6432 123.19L49.8465 122.731C51.755 121.789 53.2176 120.214 53.9468 118.314C54.3347 116.865 54.911 115.466 55.6628 114.147C56.052 113.511 56.6894 113.041 57.4414 112.835C58.1934 112.629 59.0016 112.704 59.6962 113.043L59.4956 109.855C60.351 109.321 61.0755 108.624 61.621 107.808C62.1665 106.993 62.5206 106.079 62.6598 105.126C63.2615 103.515 63.5042 101.806 63.373 100.104C63.293 99.2526 62.9427 98.4424 62.367 97.7779C61.7913 97.1134 61.0166 96.6248 60.1419 96.3749C57.6238 95.8748 54.4594 97.9792 52.7436 96.1874C51.4956 94.8748 52.1865 92.2703 50.5152 91.5411C49.2672 90.9785 47.7296 92.0203 46.4594 91.5411C45.9093 91.2564 45.4366 90.8572 45.0778 90.3743C44.1792 89.4404 43.0838 88.6901 41.8606 88.1703C40.6374 87.6504 39.3127 87.3723 37.9692 87.3533C37.4526 87.8512 36.8261 88.2376 36.1333 88.4859C35.4406 88.7342 34.6983 88.8384 33.9581 88.791L32.0862 87.2699C31.8003 87.9411 31.3029 88.5152 30.66 88.916C30.2041 88.6506 29.8306 88.2781 29.5765 87.8358C29.3224 87.3935 29.1966 86.8968 29.2116 86.3949C29.3383 85.8734 29.2916 85.3282 29.0779 84.8322C28.3648 83.853 26.6043 84.8322 25.4678 84.3946C25.4994 83.3121 25.9328 82.2736 26.6935 81.4569C26.5639 81.2624 26.3877 81.0987 26.1788 80.9787C25.97 80.8587 25.7341 80.7857 25.4899 80.7655C25.2458 80.7453 24.9999 80.7785 24.7718 80.8623C24.5437 80.9461 24.3395 81.0784 24.1754 81.2486C23.752 81.7487 23.6628 82.5404 23.0389 82.7904C22.4149 83.0405 21.7018 82.5612 21.2116 82.1028C20.148 81.2824 19.327 80.2208 18.8272 79.0193C18.6008 78.4141 18.6211 77.7521 18.8843 77.1601C19.1474 76.568 19.6349 76.0875 20.2534 75.8106C21.635 75.373 23.5514 76.2481 24.3982 75.1438C24.777 74.6646 24.7325 73.9563 25.1559 73.5188C26.4706 72.2061 28.543 75.1855 30.3703 74.623C32.1976 74.0604 31.4623 71.6643 32.7993 70.7059C33.506 70.3803 34.2551 70.1422 35.0277 69.9976C36.6767 69.3934 37.2561 67.5391 37.9023 65.9973C38.5485 64.4555 39.8633 62.7262 41.6237 63.0179C42.3814 63.1429 43.1167 63.6637 43.8521 63.3929C44.2521 63.1994 44.5847 62.9029 44.8104 62.5386C45.482 61.8101 46.3724 61.2873 47.366 61.0384C48.3595 60.7894 49.4103 60.8258 50.3815 61.1427C51.0945 60.3718 50.1809 59.0592 49.1335 58.8508C48.0862 58.6425 46.9051 58.7466 45.9246 58.3924C44.9441 58.0382 44.2088 56.6005 45.1001 56.0172C46.348 55.1838 47.685 57.3715 49.2003 57.3298C49.4111 56.4796 49.9165 55.7183 50.6378 55.1644C51.3592 54.6105 52.2561 54.2951 53.1891 54.2671C53.3674 52.5169 51.7407 51.1417 50.4705 49.8708C49.2003 48.5998 48.2421 46.4955 49.4454 45.2037C49.1557 44.5578 48.0862 44.7662 47.5513 45.2037C47.0165 45.6412 46.6377 46.3914 45.9246 46.5789C44.699 46.8706 43.8521 45.5163 43.3173 44.4954C42.7825 43.4745 41.3564 42.3076 40.4427 43.1202C40.646 44.1814 40.6103 45.2706 40.3379 46.3182C40.0654 47.3658 39.5623 48.3487 38.8605 49.2042C38.7491 48.4541 37.5458 48.3498 36.9441 48.8499C36.4099 49.4602 36.0223 50.1707 35.8076 50.9334C35.4733 51.6001 34.7602 52.2877 33.9803 52.121C32.5764 51.8293 33.1112 49.8291 32.621 48.579C32.1307 47.3289 29.6795 46.4955 29.5904 44.8078C29.5904 42.4951 33.8912 42.1827 34.3369 39.9325C34.9163 40.4534 35.4956 40.9743 36.0527 41.516C36.51 41.0235 37.07 40.6236 37.6984 40.3406C38.3268 40.0575 39.0104 39.8973 39.7073 39.8699C39.8528 39.3477 39.824 38.7964 39.6249 38.29C39.4257 37.7835 39.0657 37.3461 38.5931 37.0364C39.486 36.9838 40.3246 36.6174 40.9405 36.0106C41.5564 35.4039 41.9039 34.6017 41.9134 33.7652C41.9305 33.4732 41.8357 33.1851 41.646 32.9526C40.9998 32.2026 39.7296 33.0777 39.2839 33.9528C38.8382 34.8279 38.192 36.0363 37.1669 35.7446C36.936 34.3466 36.1379 33.0856 34.9385 32.2234L33.8912 33.8069L30.2143 32.3902L29.1447 33.8069C28.9053 33.7595 28.6799 33.6642 28.4837 33.5275C28.2875 33.3909 28.1252 33.2161 28.0082 33.0152L26.8049 33.9528C26.3279 33.5428 25.7035 33.3153 25.0555 33.3153C24.4076 33.3153 23.7833 33.5428 23.3063 33.9528C23.0711 33.6547 22.9333 33.2992 22.9095 32.9295C22.8858 32.5597 22.9772 32.1915 23.1726 31.8693L20.1865 30.9525C20.8773 29.8899 19.0277 28.4315 17.9581 29.2649C17.9581 28.5565 17.9581 27.8481 17.9581 27.1814C17.7954 27.0891 17.6126 27.0321 17.4233 27.0146C11.0783 34.3356 6.33805 42.7535 3.47342 51.7877C3.51782 51.9447 3.51782 52.1098 3.47342 52.2669C3.39193 52.4711 3.28745 52.6668 3.16155 52.8503L2.76045 54.2045C2.82752 54.5328 2.99982 54.8343 3.25458 55.0687C3.50934 55.3032 3.83438 55.4596 4.18653 55.5171L2.78262 61.2885C2.51171 62.2041 2.38415 63.1515 2.40383 64.1012C2.4898 64.9234 2.69994 65.7302 3.02785 66.4973C4.18662 69.8101 5.25613 73.1021 6.52632 76.4149C6.8173 77.6836 7.6141 78.8011 8.75473 79.5401C9.40097 78.4567 8.75474 77.144 8.48733 75.9564C8.21992 74.7688 8.48736 73.0604 9.91354 72.9979C11.6102 75.6727 13.0997 78.4579 14.3704 81.3319C14.4928 81.6552 14.6575 81.9631 14.8607 82.2487C15.2365 82.64 15.6907 82.9585 16.1977 83.1863L29.5681 89.9993C31.3731 90.9369 33.4232 92.2078 33.4678 94.1664C33.089 95.6456 30.972 96.375 30.7937 97.8959C30.8176 98.656 31.1072 99.3878 31.6182 99.9794L38.3034 109.647C38.7978 110.249 39.0922 110.973 39.1502 111.73C39.0121 112.481 38.8336 113.226 38.6154 113.96C38.4594 115.439 39.8188 116.731 39.9302 118.127C39.8686 119.043 39.6737 119.947 39.3508 120.815C39.0721 122.485 39.0721 124.186 39.3508 125.857C39.6144 128.753 39.6665 131.663 39.5068 134.566C40.777 135.232 42.0694 135.878 43.3619 136.483V136.108C44.1641 136.128 44.5653 134.691 44.6321 133.587Z" fill="#7FD6E6"/>
<path d="M134.548 24.1602C134.365 24.8437 134.246 25.5408 134.192 26.2437C134.787 26.4429 135.278 26.8475 135.564 27.3744C135.85 27.9014 135.909 28.5107 135.73 29.0772C134.192 28.3063 132.788 30.3066 132.32 31.8692C132.723 32.0385 133.081 32.288 133.369 32.6002C133.658 32.9124 133.87 33.2798 133.991 33.6766C134.112 34.0735 134.139 34.4903 134.07 34.8978C134 35.3054 133.837 35.6939 133.59 36.0362C133.366 36.3253 133.058 36.5479 132.703 36.6773C132.347 36.8066 131.959 36.8372 131.585 36.7654C131.023 36.5459 130.569 36.1369 130.315 35.6195C129.658 34.4998 129.364 33.2257 129.468 31.9525C129.568 31.513 129.568 31.0585 129.468 30.619C129 29.3689 127.017 29.5148 125.813 30.1815L127.418 33.286C123.64 34.5668 120.268 36.7164 117.613 39.5365C117.122 38.7153 116.79 37.8195 116.632 36.8904C116.409 37.0202 116.22 37.195 116.079 37.402C115.938 37.609 115.848 37.843 115.816 38.0867C115.783 38.3304 115.81 38.5778 115.894 38.8106C115.977 39.0435 116.115 39.2559 116.298 39.4324C115.385 39.5519 114.524 39.8971 113.802 40.4324C113.437 40.7002 113.018 40.8956 112.57 41.0067C112.121 41.1178 111.654 41.1421 111.195 41.0783C110.326 40.8283 109.791 39.599 110.526 38.9948C111.551 39.1406 111.93 37.7864 111.886 36.8071C109.011 36.8071 106.939 33.4317 104.064 33.7234C102.619 34.0228 101.351 34.828 100.521 35.9737C98.8264 37.8898 97.3825 39.9882 96.2199 42.2242C96.0411 42.7104 95.6865 43.123 95.2172 43.391C94.7651 43.5025 94.3023 43.5723 93.8356 43.5994C92.4986 43.9119 92.2534 45.537 92.2757 46.8288C92.298 48.1206 92.2757 49.079 92.2757 50.2041L96.5319 48.1206C96.7325 48.9957 97.0444 49.9958 97.9135 50.35C98.7826 50.7042 100.432 49.6415 100.521 48.4539C100.447 47.2445 99.9714 46.0867 99.1614 45.1412C100.805 43.0302 102.853 41.2218 105.2 39.8074C106.337 40.3074 105.847 41.8908 105.044 42.8701C104.242 43.8493 103.306 44.9536 104.042 46.0162C104.777 47.0788 106.27 46.5788 107.362 47.183C108.454 47.7872 107.095 49.2665 106.047 49.6624C105 50.0582 103.685 50.4333 103.351 51.4542C103.15 52.0584 103.351 52.7669 103.128 53.3502C102.549 54.5795 100.588 54.1002 99.2951 53.5168C98.0026 52.9334 95.8411 52.871 95.7074 54.2044C95.3461 53.4035 94.7114 52.7369 93.9024 52.3085C92.7882 52.9544 92.8551 54.392 92.5431 55.6421C92.221 56.7592 91.4826 57.7321 90.4612 58.3853C89.4398 59.0386 88.2024 59.3292 86.9721 59.2049C86.7549 60.4156 86.991 61.6593 87.6406 62.7261C86.9119 62.8426 86.219 63.1058 85.6098 63.4975C85.0006 63.8891 84.4897 64.3999 84.1125 64.9944C83.7352 65.5888 83.5006 66.2528 83.4249 66.9404C83.3492 67.628 83.4343 68.3228 83.6741 68.9766C84.8393 69.0542 86.0058 68.8449 87.0575 68.3696C88.1092 67.8944 89.0095 67.1699 89.6685 66.2681C90.0505 65.5638 90.5636 64.9288 91.1838 64.3929C91.8969 63.9553 93.1002 64.1011 93.2785 64.872C94.4373 64.7262 94.7046 63.2052 95.6851 62.6426C96.6656 62.0801 98.3815 62.9761 99.4511 63.872C100.521 64.7679 102.37 65.4346 103.217 64.3511C103.106 64.8968 103.176 65.4613 103.419 65.9682C103.663 66.4751 104.066 66.8998 104.576 67.1848C105.6 67.7468 106.739 68.1017 107.919 68.2266L110.147 68.6223C110.209 68.3264 110.339 68.0465 110.527 67.8018C110.716 67.5572 110.959 67.3538 111.239 67.2056C110.883 68.3098 112.309 69.435 113.468 69.1016C114.042 68.8826 114.508 68.4698 114.772 67.9449C115.036 67.4201 115.08 66.8216 114.894 66.2681C114.67 65.7253 114.307 65.2421 113.837 64.8607C113.367 64.4793 112.804 64.2113 112.198 64.0803C111.685 63.9553 111.039 63.8095 110.905 63.3302C110.86 63.0256 110.931 62.7159 111.106 62.4552C111.841 61.1634 113.156 59.7466 114.671 60.1008C115.342 60.3226 115.93 60.7204 116.365 61.2467C117.655 62.3178 118.63 63.681 119.195 65.2055C120.131 68.6016 116.966 71.6643 114.069 73.852C113.845 74.027 113.589 74.1612 113.312 74.2478C112.621 74.3937 112.019 73.8104 111.462 73.4145C109.977 72.5444 108.244 72.1158 106.493 72.1852L99.2283 71.8102C99.0865 71.1774 98.7342 70.6028 98.2218 70.1687C97.7095 69.7346 97.0633 69.4632 96.3759 69.3933C95.6195 69.3789 94.866 69.4845 94.1475 69.7058L83.1615 72.5394L81.0891 76.7064C79.4178 80.0192 77.7464 83.9362 79.5069 87.124C80.3314 88.7074 82.4483 89.9577 83.9637 89.0618L82.8273 92.5828C83.3928 92.9041 84.0466 93.0636 84.7079 93.0413C85.3693 93.0191 86.0093 92.8162 86.5487 92.4578C87.6203 91.7438 88.6401 90.9642 89.6016 90.1242C89.9376 89.807 90.3943 89.6273 90.8718 89.6242C91.6295 89.6242 92.0751 90.5409 92.8105 90.6451C93.5459 90.7493 93.9692 90.3118 94.5486 90.2077C96.1085 89.9576 97.0445 91.8536 96.8885 93.3121C96.7325 94.7705 96.064 96.3331 96.7102 97.6666C97.0993 98.1994 97.4208 98.7728 97.6684 99.3751C97.8467 100.354 97.0221 101.459 97.4901 102.313C97.9581 103.167 98.7826 103.25 98.9609 103.98C99.1392 104.709 98.025 105.48 97.4233 106.23C97.0729 106.876 96.8903 107.589 96.8903 108.313C96.8903 109.037 97.0729 109.751 97.4233 110.397C98.0918 112.48 98.7826 114.564 99.4734 116.647C99.8077 117.668 100.699 117.835 101.702 118.127C104.287 118.814 104.198 120.46 104.198 120.46C104.373 120.862 104.689 121.196 105.094 121.408C105.499 121.62 105.968 121.697 106.426 121.627C107.36 121.405 108.224 120.976 108.944 120.377L112.666 117.731C113.536 117.218 114.293 116.553 114.894 115.772C115.555 114.16 116.018 112.482 116.276 110.772C116.877 109.126 119.172 107.73 120.487 108.938C120.108 107.487 120.108 105.972 120.487 104.521C120.935 103.39 121.205 102.204 121.289 101C121.289 99.7918 120.153 98.5208 118.883 98.7083C118.877 98.1265 118.994 97.5493 119.228 97.01C119.461 96.4706 119.806 95.9798 120.243 95.5655C120.68 95.1512 121.2 94.8216 121.773 94.5958C122.347 94.37 122.962 94.2524 123.585 94.2497C123.945 94.3111 124.316 94.2749 124.654 94.1454C124.92 93.9613 125.122 93.7076 125.234 93.4162C125.969 91.8536 126.727 90.291 127.462 88.7283C127.603 88.5227 127.688 88.2885 127.711 88.0456C127.734 87.8026 127.695 87.5581 127.596 87.3324C127.172 86.749 126.147 87.0615 125.613 87.5824C125.078 88.1033 124.699 88.8117 123.964 88.9992C123.228 89.1867 122.136 88.5409 121.735 87.7491C121.368 86.9195 120.905 86.13 120.354 85.3947C119.574 84.6447 118.37 84.3946 117.546 83.6862C116.721 82.9778 116.588 81.3735 117.679 81.1651L116.03 79.9984C116.565 78.7899 117.858 77.3315 119.039 78.0607C119.32 78.2685 119.548 78.5317 119.707 78.8316C120.978 80.9151 122.136 82.8737 123.228 84.978C124.002 84.4794 124.936 84.2445 125.873 84.3128C126.81 84.3811 127.694 84.7483 128.376 85.353C128.752 84.6292 129.292 83.9901 129.957 83.4795C130.623 82.9688 131.398 82.5987 132.231 82.3945C132.721 82.3136 133.199 82.1808 133.657 81.9986C133.955 81.8548 134.212 81.6469 134.407 81.392C134.602 81.1372 134.73 80.8427 134.78 80.5327C134.829 80.2228 134.799 79.9062 134.693 79.6091C134.586 79.312 134.405 79.0429 134.165 78.8239C133.925 78.6049 133.633 78.4423 133.313 78.3494C132.993 78.2565 132.654 78.2361 132.323 78.2897C131.993 78.3434 131.681 78.4696 131.413 78.658C131.146 78.8464 130.929 79.0916 130.782 79.3733C130.782 78.1649 129.022 77.8107 127.73 77.894C126.437 77.9773 124.721 77.894 124.498 76.6022C124.276 75.3105 125.813 73.6228 124.498 73.1852L127.507 72.2269C127.688 73.2258 128.272 74.1218 129.138 74.7303C130.005 75.3388 131.088 75.6136 132.164 75.498C133.256 75.3522 134.526 74.8105 135.328 75.498C136.131 76.1856 135.908 76.8314 136.42 77.3731C136.933 77.9148 138.649 77.8107 139.718 77.4981C140.788 77.1856 142.415 77.1648 142.771 78.2066C143.128 79.2483 141.813 80.7277 142.771 81.4777C143.73 82.2278 144.51 81.4777 145.379 81.6027C146.671 81.9153 146.693 83.6862 146.537 84.8113C146.381 85.9364 146.961 87.7699 148.253 87.5616C149.546 87.3532 149.635 85.9156 150.638 85.478C151.002 85.3547 151.402 85.3684 151.756 85.5161C152.109 85.6638 152.387 85.934 152.532 86.2698C153.575 81.4697 154.098 76.5834 154.092 71.6852C154.024 54.1399 147.07 37.2284 134.548 24.1602Z" fill="#7FD6E6"/>
<path d="M120.153 33.2859C121.49 33.6818 122.381 34.0777 121.735 32.4109C121.089 30.7441 119.507 28.8063 122.025 26.4519C124.543 24.0975 125.367 22.285 124.365 21.8683C123.362 21.4516 123.83 22.2849 122.314 23.5142C120.799 24.7435 118.838 25.5977 119.328 26.8478C119.819 28.0979 119.774 28.2646 119.328 29.9731C118.883 31.6815 119.128 32.9734 120.153 33.2859Z" fill="#7FD6E6"/>
<path d="M96.554 21.5141C97.9579 22.41 97.4231 24.7644 98.7824 24.3269C100.142 23.8893 99.4287 22.4516 100.743 23.0558C102.058 23.6601 102.437 21.5766 100.966 21.4099C100.424 21.4056 99.8918 21.2781 99.4144 21.0386C98.9369 20.799 98.5288 20.4546 98.2253 20.0348C97.7869 19.7019 97.2792 19.4576 96.7345 19.3177C96.1898 19.1779 95.6199 19.1454 95.061 19.2222C93.9023 20.2015 95.1501 20.5973 96.554 21.5141Z" fill="#7FD6E6"/>
<path d="M100.409 19.2015C101.457 19.639 101.301 18.7431 102.348 18.7014C103.395 18.6598 103.329 17.7638 102.348 17.3262C101.368 16.8887 101.836 18.5347 100.788 18.243C99.7409 17.9513 99.9414 16.7221 99.3174 17.3888C98.6935 18.0555 99.362 18.8056 100.409 19.2015Z" fill="#7FD6E6"/>
<path d="M50.9387 36.1203C49.5794 35.9745 48.8217 35.1619 50.3816 34.0368C50.7 33.8006 50.9433 33.4875 51.0851 33.1314C51.2269 32.7752 51.2617 32.3897 51.186 32.0163C51.1103 31.643 50.9268 31.2961 50.6554 31.0132C50.384 30.7304 50.035 30.5223 49.6462 30.4115C47.9749 30.1615 47.0612 27.9529 46.8384 26.8486C46.6156 25.7444 45.3899 25.286 44.7437 25.9319C44.0975 26.5778 42.5152 27.2445 42.0473 26.4319C41.5793 25.6193 41.0445 25.3902 39.8189 26.7028C38.5933 28.0154 37.3453 28.6614 38.1476 26.5362C38.9498 24.411 37.0112 23.1817 36.4318 24.9318C36.1181 26.5414 35.5942 28.1088 34.8719 29.5989C34.0697 30.6615 36.0084 29.7655 37.234 29.0572C38.4596 28.3488 38.7493 29.5572 40.0195 30.5156C41.2897 31.4741 41.5348 30.9741 43.2061 31.2241C44.8774 31.4741 45.4345 31.2241 45.947 33.3076C46.4595 35.3911 47.351 35.3911 46.4373 36.8288C45.5237 38.2664 44.4317 39.0373 43.3175 38.7873C41.8467 38.4747 42.1364 39.7456 43.7409 39.9956C45.3453 40.2456 46.3705 41.9542 47.2841 42.7043C48.1978 43.4544 47.7298 42.2667 49 42.1626C50.2702 42.0584 50.6268 41.6625 49.5571 40.5582C48.4875 39.4539 48.5766 37.4329 49.7576 38.4747C50.9387 39.5164 51.8077 39.7873 52.2311 38.2247C52.6545 36.662 52.2758 36.2661 50.9387 36.1203Z" fill="#7FD6E6"/>
<path d="M21.0782 26.3687C21.6798 28.6814 22.9055 30.3482 24.3094 30.5358C25.7133 30.7233 27.0057 29.744 27.9194 30.5358C28.833 31.3275 29.8581 30.3275 29.8581 30.3275C29.8581 30.3275 32.2201 30.0149 31.0391 28.7648C29.858 27.5147 28.9444 26.8479 30.5489 25.952C32.1533 25.0561 33.0224 23.431 32.0642 23.0352C31.106 22.6393 31.1505 22.8268 29.8358 24.0352C28.521 25.2436 28.6102 27.0146 27.964 26.1187C27.3178 25.2228 28.6101 23.2018 27.3177 23.9102C26.8697 24.0905 26.3776 24.1527 25.8944 24.0903C25.4113 24.0278 24.9557 23.8432 24.5768 23.556C23.3289 24.8686 21.0781 26.327 21.9917 24.9102C22.9054 23.4935 22.5266 23.0559 24.3538 22.4517C24.6584 22.3808 24.9336 22.2268 25.1443 22.0093C25.355 21.7918 25.4918 21.5205 25.5371 21.2301C25.5825 20.9398 25.5345 20.6434 25.3992 20.3786C25.2639 20.1138 25.0474 19.8926 24.7772 19.7432C23.0391 21.2641 21.3678 22.8476 19.7856 24.5144C20.365 24.6602 20.7662 25.0978 21.0782 26.3687Z" fill="#7FD6E6"/>
<path d="M34.8496 23.2021C34.0474 23.3479 34.2034 24.8064 33.3343 25.4106C32.4652 26.0148 32.4875 27.4942 33.7131 27.1191C34.9387 26.7441 33.9805 26.6816 34.5376 25.5565C35.0947 24.4314 35.6518 23.0563 34.8496 23.2021Z" fill="#7FD6E6"/>
<path d="M55.5737 15.035C56.2199 15.035 57 14.6808 56.9331 14.0974C56.8663 13.514 56.7103 13.5348 56.9331 13.3265C57.0601 13.2163 57.2278 13.1566 57.401 13.1598C58.4504 12.8798 59.3639 12.2688 59.986 11.4305C60.1148 11.2541 60.2818 11.105 60.4762 10.993C60.9888 10.7638 61.7241 10.993 62.1475 10.6388C62.2811 10.4828 62.3659 10.2953 62.3926 10.0971C62.483 9.75414 62.5501 9.40618 62.5932 9.05531C62.6163 8.93823 62.6163 8.81823 62.5932 8.70115C62.502 8.58324 62.3669 8.5014 62.2144 8.47186C61.9462 8.32042 61.6467 8.22367 61.3357 8.18777C61.0247 8.15187 60.7091 8.17767 60.4094 8.26356C59.8969 8.51359 59.5626 9.13869 58.9832 9.09702C58.6964 9.05216 58.4272 8.93708 58.2032 8.76359C57.446 8.38537 56.5733 8.26043 55.7297 8.40942C54.8829 8.40942 54.0584 8.76356 53.2116 8.86774C52.9172 8.97174 52.5924 8.97174 52.298 8.86774C52.0083 8.70106 51.8746 8.3677 51.5849 8.22185C51.2952 8.07601 50.5599 8.2219 50.1142 8.53443C49.8468 8.66971 49.6176 8.86258 49.4456 9.09702C49.3583 9.2129 49.3115 9.35117 49.3115 9.49289C49.3115 9.63462 49.3583 9.77289 49.4456 9.88877C49.5793 10.0763 49.8467 10.1805 49.869 10.4096C49.8913 10.6388 49.869 10.6388 49.869 10.743C49.8842 10.7914 49.9097 10.8365 49.9439 10.8755C49.9782 10.9145 50.0205 10.9466 50.0684 10.9699C50.1162 10.9933 50.1687 11.0073 50.2225 11.0113C50.2763 11.0152 50.3305 11.009 50.3816 10.993C50.5797 10.9414 50.7804 10.8997 50.9832 10.868C51.1115 10.8775 51.2358 10.9142 51.3466 10.9754C51.4574 11.0366 51.5518 11.1207 51.6227 11.2211C51.6936 11.3215 51.7391 11.4357 51.7557 11.555C51.7723 11.6744 51.7597 11.7957 51.7186 11.9097C51.6182 12.1343 51.4519 12.3278 51.239 12.4679C51.0261 12.6079 50.7753 12.6889 50.5153 12.7015C49.9878 12.7167 49.4631 12.6242 48.9777 12.4306C48.8217 12.4306 48.9777 12.2014 48.9777 12.0556C48.9777 11.9097 48.7771 11.6597 48.532 11.6597C48.3023 11.6804 48.071 11.6804 47.8412 11.6597C47.6974 11.6243 47.5677 11.5502 47.4687 11.4464C47.3696 11.3427 47.3055 11.2139 47.2841 11.0763C47.2172 10.802 47.2172 10.5172 47.2841 10.2429C47.3275 10.0858 47.3275 9.92079 47.2841 9.76363C47.2841 9.45111 46.7939 9.30536 46.4596 9.34703C46.3058 9.37411 46.1593 9.43003 46.0293 9.51146C45.8992 9.59289 45.7881 9.69806 45.7027 9.82073C45.6173 9.9434 45.5595 10.081 45.5326 10.2251C45.5056 10.3693 45.5101 10.5172 45.5459 10.6597C45.5459 11.0347 45.9471 11.368 45.9025 11.743C45.8579 12.118 45.1894 12.4723 44.8106 12.8473C44.684 12.9825 44.5879 13.1403 44.5281 13.3111C44.4683 13.4819 44.446 13.6622 44.4627 13.8413C44.4793 14.0203 44.5346 14.1943 44.625 14.3529C44.7154 14.5115 44.8391 14.6514 44.9888 14.7641C45.1448 14.8683 45.3231 14.9516 45.3677 15.1391C45.4123 15.3267 45.234 15.4933 45.1003 15.6392C44.9666 15.785 44.8998 16.0351 45.1003 16.1393C45.1531 16.1605 45.2099 16.1714 45.2673 16.1714C45.3248 16.1714 45.3817 16.1605 45.4345 16.1393C46.1699 16.1393 47.1059 16.4101 47.1727 17.1185C47.1826 17.351 47.1089 17.5798 46.9635 17.7686C46.8181 17.9574 46.6093 18.0953 46.3704 18.1603C46.1282 18.2239 45.8746 18.2401 45.6253 18.2078C45.3761 18.1756 45.1366 18.0955 44.922 17.9727C44.8431 17.902 44.7411 17.858 44.6323 17.8477C44.1866 17.8477 44.1643 18.452 43.8523 18.7437C43.7262 18.8235 43.5847 18.8793 43.4355 18.9079C43.2864 18.9365 43.1328 18.9373 42.9833 18.9103C42.8023 18.9241 42.6215 18.88 42.4707 18.7853C42.2033 18.5769 42.2702 18.1811 42.1365 17.8685C42.0549 17.7435 41.9403 17.6402 41.8037 17.5686C41.6671 17.4969 41.5131 17.4592 41.3565 17.4592C41.1999 17.4592 41.0459 17.4969 40.9093 17.5686C40.7727 17.6402 40.6582 17.7435 40.5766 17.8685C40.4472 18.1432 40.4278 18.4521 40.5219 18.739C40.616 19.0259 40.8173 19.2716 41.0891 19.4312L40.7772 20.1605C40.1755 21.5148 39.9081 23.1607 40.7772 22.9315C41.0428 22.8049 41.3288 22.7205 41.6239 22.6815C41.7713 22.6752 41.917 22.7147 42.0379 22.7939C42.1588 22.873 42.2484 22.9873 42.2925 23.119C42.2925 23.2857 42.2925 23.4523 42.2925 23.5774C42.2925 23.7024 43.0724 23.3482 43.4512 23.5774C43.83 23.8065 43.7633 23.8691 43.9861 23.8482C44.209 23.8274 44.2757 23.5774 44.454 23.4941C44.6323 23.4107 44.9888 23.5982 45.1225 23.8274C45.2 24.0789 45.3551 24.3037 45.5682 24.4734C45.6541 24.5107 45.7472 24.5311 45.8418 24.5333C45.9365 24.5355 46.0307 24.5194 46.1185 24.4862C46.2063 24.453 46.2858 24.4033 46.3522 24.3401C46.4185 24.277 46.4701 24.2017 46.5041 24.1191C46.5861 23.9525 46.6287 23.7712 46.6287 23.5878C46.6287 23.4044 46.5861 23.2231 46.5041 23.0565C46.3481 22.7231 46.103 22.4315 45.9693 22.0981C45.9208 21.9782 45.8533 21.8657 45.7688 21.7647C45.4568 21.5355 45.0557 21.7647 44.6769 21.8897C44.483 21.9151 44.2859 21.8713 44.1248 21.7671C43.9638 21.6629 43.8507 21.5059 43.8078 21.3273C43.7799 21.1433 43.826 20.9563 43.9372 20.8023C44.0483 20.6483 44.2165 20.5384 44.4094 20.4938C44.9442 20.4938 45.5682 20.848 46.0139 20.4938C46.4596 20.1396 46.2814 20.1813 46.4819 20.1188C46.6825 20.0563 47.039 20.348 47.1281 20.6397C47.144 20.9306 47.2615 21.2087 47.4624 21.4314C47.6061 21.5043 47.7668 21.5425 47.9303 21.5425C48.0938 21.5425 48.2547 21.5043 48.3983 21.4314C48.9777 21.2856 49.6239 21.0147 49.7353 20.4729C49.7903 20.1835 49.7903 19.8873 49.7353 19.5979C49.6971 19.4557 49.702 19.3065 49.7492 19.1667C49.7964 19.0269 49.8841 18.902 50.0027 18.8062C50.4929 18.5353 51.1837 19.1395 51.6517 18.8062C51.7703 18.7273 51.863 18.619 51.9192 18.4936C52.4103 17.714 52.8493 16.9069 53.2339 16.0768C53.3681 15.7163 53.5981 15.3936 53.9024 15.1391C54.44 14.9677 55.0165 14.9318 55.5737 15.035Z" fill="#7FD6E6"/>
<path d="M74.0918 34.3278C74.2032 33.9736 74.8272 33.8277 74.7604 33.4735C74.6935 33.1193 74.5598 33.2235 74.4707 33.0984C74.4232 33.0196 74.3959 32.9316 74.3911 32.8412C74.3863 32.7508 74.404 32.6606 74.4429 32.5777C74.4818 32.4948 74.5408 32.4215 74.6153 32.3637C74.6897 32.3058 74.7775 32.2649 74.8718 32.2443C75.0662 32.2064 75.2688 32.2336 75.444 32.3212C75.6191 32.4088 75.7557 32.5512 75.83 32.7234C76.0082 33.161 75.8299 33.7652 76.3425 33.9943C76.855 34.2235 77.3676 33.5986 77.3899 33.0569C77.4122 32.5151 77.3899 31.8901 77.6573 31.4942C77.9247 31.0984 78.259 31.14 78.5041 30.9108C79.2172 30.1607 78.1697 28.8273 78.816 28.0355C79.1079 27.7683 79.4574 27.5624 79.8411 27.4313C80.2199 27.2438 80.5542 26.8688 80.3982 26.5146C80.2422 26.1604 78.9943 26.1187 78.7715 25.5353C78.5486 24.9519 80.2645 24.556 80.3759 23.7226C80.4084 23.5643 80.4084 23.4017 80.3759 23.2435C80.1338 22.3852 79.9918 21.505 79.9525 20.6182C79.893 20.064 80.0515 19.5085 80.3982 19.0556C80.7993 18.6597 81.6684 18.6597 81.869 19.1806C81.869 18.7014 81.8689 18.0972 82.4483 17.9097C82.6486 17.8979 82.8496 17.8979 83.05 17.9097C83.6739 17.7638 84.0305 17.1596 84.2979 16.6179C84.5981 16.1477 84.7307 15.6005 84.6767 15.0552C84.6767 14.5344 83.8967 14.0759 83.4065 14.3468C82.9162 14.6177 82.8717 15.7011 82.2032 15.8886C81.9356 15.9287 81.6613 15.8847 81.4233 15.7636C80.8368 15.5875 80.2974 15.2963 79.8411 14.9094C79.6261 14.7033 79.4882 14.4376 79.448 14.1522C79.4078 13.8668 79.4676 13.577 79.6183 13.3259C79.764 13.1852 79.8844 13.0234 79.9748 12.8467C79.9886 12.732 79.9779 12.6159 79.9435 12.505C79.9091 12.3942 79.8516 12.2908 79.7743 12.2008L78.2367 9.86731C78.1068 9.60864 77.9071 9.38605 77.6573 9.22143C77.1893 8.95057 76.4762 9.01306 76.2534 8.55469C76.2448 8.9401 76.0861 9.30929 75.8071 9.59314C75.5282 9.87699 75.1481 10.056 74.7381 10.0965C73.9804 10.0965 73.1113 9.72144 72.5097 10.0965C72.2868 10.2632 72.1531 10.5132 71.908 10.6591C71.6628 10.8049 70.2367 10.6591 70.1253 11.3049C70.1239 11.5152 70.1775 11.7226 70.2813 11.9091C70.3484 12.0936 70.361 12.2916 70.3179 12.4823C70.2747 12.6729 70.1773 12.8493 70.036 12.9926C69.884 13.1229 69.6852 13.1952 69.4789 13.1952C69.2727 13.1952 69.0739 13.1229 68.9218 12.9926C68.7558 12.6877 68.6574 12.3546 68.6323 12.0133C68.6323 11.6799 68.1865 11.3466 67.8522 11.5132C67.518 11.6799 67.6071 11.9716 67.4065 12.1591C67.279 12.2689 67.112 12.3299 66.9387 12.3299C66.7653 12.3299 66.5982 12.2689 66.4706 12.1591C66.2554 11.8962 66.1102 11.5891 66.0472 11.2632L63.039 12.4091C62.8011 12.4715 62.5954 12.6121 62.4595 12.805C62.2367 13.2009 62.5933 13.8051 62.2145 14.0759C61.8356 14.3468 61.2562 13.8884 60.7882 14.0759C60.3203 14.2634 60.4316 15.5552 59.7408 15.7844C59.5625 15.7844 59.362 15.7844 59.1837 15.7844C59.0054 15.7844 58.7158 16.4512 58.6489 16.847C58.5821 17.2429 58.2479 17.4305 57.8913 17.6805C56.3983 18.7639 55.2841 17.1595 54.6824 18.618C54.5487 18.9097 54.259 19.1181 54.259 19.4306C54.6824 19.2847 55.0613 19.7848 55.1058 20.2015C55.1504 20.6182 55.1058 21.1183 55.3955 21.4517C55.6852 21.785 56.8662 21.8266 57.0222 22.4309C57.1782 23.0351 56.7771 23.181 56.9108 23.5352C57.0445 23.8894 58.1588 23.931 58.6044 24.3894C58.7288 24.5451 58.8197 24.7221 58.8718 24.9102C59.2061 25.8895 59.5181 26.8688 59.8524 27.8481C60.0151 28.2608 60.0833 28.7009 60.0528 29.1398C59.8968 29.9732 59.0055 30.8066 59.4734 31.515C59.6963 31.8483 60.1642 32.0151 60.3202 32.3693C60.408 32.6835 60.408 33.0135 60.3202 33.3277C60.3202 33.6611 60.3203 34.0569 60.6545 34.1611C60.3426 34.6819 59.4957 34.1611 58.894 34.3695C58.7098 34.4312 58.5572 34.5554 58.4664 34.7175C58.3756 34.8796 58.3532 35.0678 58.4038 35.2445C58.4605 35.4183 58.5883 35.5639 58.7595 35.6498C58.9307 35.7357 59.1313 35.7548 59.3174 35.7028C59.1867 36.0897 59.153 36.4995 59.2187 36.9005C59.2844 37.3015 59.4478 37.6831 59.6963 38.0156C60.0306 38.599 60.4763 39.2865 60.1421 39.8699C59.8078 40.4533 59.4066 40.5158 59.4511 40.9533C59.4957 41.3909 60.0751 41.5784 60.1865 41.9951C60.298 42.4118 59.7632 42.9119 59.6517 43.4327C59.4735 44.412 60.9665 44.912 61.3007 45.8496C61.5013 46.4121 61.3008 47.2872 62.0361 47.3498C62.7715 47.4123 62.7715 46.933 62.8383 46.5163C62.9052 46.0996 62.8383 45.6412 63.2394 45.3495C63.6405 45.0578 63.6629 45.1412 63.8411 44.9954C64.6879 44.3911 64.064 43.0578 64.5543 42.1827C65.0445 41.3076 65.9136 41.3284 66.5376 40.8075C66.9854 40.3074 67.3601 39.754 67.6518 39.1615C67.8016 38.8709 68.0404 38.6284 68.3381 38.4652C68.6357 38.3019 68.9786 38.2252 69.3231 38.2448C69.7242 38.2448 70.0807 38.6406 70.5041 38.5781C71.4177 38.4323 71.128 36.9321 71.908 36.4946C72.6879 36.057 73.7353 37.078 74.6267 36.8072C74.7623 36.7543 74.8834 36.6736 74.9811 36.571C75.0789 36.4685 75.1508 36.3467 75.1914 36.2147C75.2321 36.0827 75.2405 35.9437 75.216 35.8083C75.1915 35.6728 75.1347 35.5442 75.05 35.432C74.5597 34.9944 73.958 34.7445 74.0918 34.3278Z" fill="#7FD6E6"/>
<path d="M32.978 19.8263C33.5128 20.5347 33.4013 19.6805 34.248 19.3263C35.0948 18.9721 36.4766 19.0345 36.1869 20.0763C35.8972 21.1181 37.3679 21.4514 38.081 20.243C38.7941 19.0346 38.9278 16.7219 38.081 17.6803C37.2342 18.6387 36.7885 18.9721 35.6075 17.9303C34.4264 16.8886 34.0476 16.2635 33.3791 17.2219C32.7105 18.1803 31.3735 19.4721 30.8387 18.2845C30.3038 17.0969 30.5713 16.201 29.7691 16.826C28.9668 17.4511 28.2536 17.9303 28.9667 18.7845C29.6798 19.6388 29.6131 21.3473 30.7273 20.5347C31.8415 19.7222 32.4209 19.2012 32.978 19.8263Z" fill="#7FD6E6"/>
<path d="M34.6938 15.0347C35.1172 13.8262 34.2482 13.222 33.6688 13.9304C33.0894 14.6388 32.7997 13.9304 33.2454 14.9721C33.6911 16.0139 34.2481 16.2223 34.6938 15.0347Z" fill="#7FD6E6"/>
<path d="M38.9054 15.4096C39.0168 16.5763 39.3957 16.3054 39.7522 15.1178C40.1088 13.9302 39.7522 13.9095 40.5767 13.1386C41.4012 12.3677 39.6631 12.2843 39.6631 12.2843C39.6631 12.2843 38.6381 11.2425 37.8358 12.2843C37.3233 12.951 36.8553 12.951 37.6129 13.7428C38.3706 14.5345 38.9054 14.2636 38.9054 15.4096Z" fill="#7FD6E6"/>
<path d="M83.8522 52.5373C82.3146 53.2457 81.4009 55.2042 83.0277 55.4126C84.6544 55.6209 84.2756 55.2876 84.4985 54.1625C84.7213 53.0374 84.8327 52.1623 83.8522 52.5373Z" fill="#7FD6E6"/>
<path d="M86.4371 55.8304C85.5457 56.9347 87.0165 58.4972 88.6655 56.6637C90.3145 54.8302 90.1362 54.1218 88.6655 52.7467C87.1947 51.3716 88.0415 48.5797 86.7045 49.809C85.3674 51.0383 85.724 50.9132 86.8382 52.3508C87.9524 53.7885 87.3507 54.622 86.4371 55.8304Z" fill="#7FD6E6"/>
<path d="M79.6626 41.5577C81.2002 40.891 79.3729 39.7867 78.2587 40.891C77.1445 41.9953 76.0303 40.4536 76.0303 40.4536C74.9161 41.6828 75.5402 44.0372 77.6572 43.7247C79.7741 43.4122 78.125 42.1203 79.6626 41.5577Z" fill="#7FD6E6"/>
<g style="mix-blend-mode:multiply" opacity="0.34">
<path d="M148.788 45.5367C149.927 50.3605 150.502 55.2856 150.504 60.2255C150.507 70.3844 148.031 80.4101 143.266 89.5398C138.501 98.6695 131.571 106.663 123.004 112.911C114.437 119.16 104.458 123.499 93.8272 125.598C83.1965 127.698 72.1935 127.503 61.6555 125.028C51.1175 122.553 41.3222 117.863 33.0147 111.316C24.7072 104.768 18.1065 96.5347 13.7147 87.2426C9.32296 77.9506 7.25592 67.8442 7.6708 57.6927C8.08567 47.5412 10.9716 37.6118 16.1089 28.6602C7.99978 38.6633 2.83435 50.4778 1.1269 62.9277C-0.580554 75.3775 1.22954 88.0283 6.37692 99.6208C11.5243 111.213 19.8294 121.343 30.4656 129.001C41.1017 136.66 53.6978 141.58 66.9999 143.272C80.302 144.964 93.8461 143.369 106.284 138.645C118.722 133.922 129.619 126.235 137.892 116.349C146.164 106.464 151.523 94.7248 153.435 82.3009C155.347 69.8771 153.744 57.2017 148.788 45.5367Z" fill="#4D89CA"/>
</g>
<path opacity="0.46" d="M139.674 49.2463C135.217 55.0801 118.86 51.2049 103.351 40.6206C87.841 30.0364 79.0165 16.7018 83.4733 10.868C87.9301 5.03411 104.309 8.90948 119.819 19.4937C135.328 30.078 144.242 43.4125 139.674 49.2463Z" fill="#C0FFFF"/>
</svg>
