<svg width="400" height="487" viewBox="0 0 400 487" fill="none" xmlns="http://www.w3.org/2000/svg">
<path d="M285.126 380.167C437.428 237.767 437.428 6.89253 285.126 -135.507C132.824 -277.906 -114.106 -277.906 -266.408 -135.507C-418.709 6.89262 -418.709 237.767 -266.408 380.167C-114.106 522.566 132.824 522.566 285.126 380.167Z" fill="url(#paint0_radial_1_782)"/>
<path d="M228.873 327.571C350.107 214.22 350.107 30.4405 228.873 -82.911C107.639 -196.262 -88.9204 -196.263 -210.154 -82.911C-331.388 30.4405 -331.388 214.22 -210.154 327.571C-88.9204 440.923 107.639 440.923 228.873 327.571Z" fill="#F2CF30"/>
<path d="M157.923 -93.4281C164.967 -86.6098 169.924 -78.1482 172.276 -68.927C174.628 -59.7059 174.289 -50.0635 171.294 -41.0068C168.954 -34.2979 165.121 -27.6723 165.901 -20.6508C166.681 -13.6294 175.349 -7.02463 181.5 -11.0041C187.65 -14.9837 185.555 -26.193 192.307 -29.9225C198.658 -33.4228 206.614 -26.1513 206.48 -19.2341C206.346 -12.3168 201.667 -6.35788 198.369 -0.16983C193.912 8.45593 192.709 20.6653 201.065 26.1866C207.884 30.7703 219.516 29.9786 222.324 37.375C224.085 42.0005 220.898 46.8343 219.94 51.6681C218.982 56.5018 223.527 63.0856 227.984 60.6896C229.369 59.8198 230.429 58.5668 231.015 57.106C238.359 42.974 240.004 26.8396 235.65 11.6645L280.708 22.4988C281.671 22.8738 282.711 23.0421 283.752 22.9916C284.793 22.9411 285.809 22.6731 286.725 22.2071C288.953 20.6653 288.329 17.6651 288.53 15.1857C288.715 13.441 289.301 11.7542 290.247 10.2404C291.193 8.72659 292.477 7.42145 294.012 6.41402C264.76 -56.1506 212.935 -107.121 147.583 -137.599C144.798 -132.557 139.606 -128.41 138.09 -122.847C134.904 -111.013 148.72 -102.095 157.923 -93.4281Z" fill="url(#paint1_radial_1_782)"/>
<path d="M57.9792 394.511C55.9932 390.957 53.513 387.664 50.6031 384.718L30.9709 363.112C29.7544 361.549 28.1581 360.278 26.3135 359.404C23.8503 358.758 21.2447 358.758 18.7815 359.404C10.9598 360.591 0.731384 359.237 -1.27417 352.111C-1.79227 349.34 -1.66306 346.497 -0.895386 343.777C1.54254 330.56 0.165649 316.974 -4.88419 304.42C-5.59579 302.052 -7.07504 299.948 -9.11819 298.398C-11.1559 297.342 -13.4811 296.871 -15.8034 297.044C-24.3382 297.044 -32.6724 299.607 -41.2072 299.586C-49.7419 299.565 -59.2795 295.919 -61.7976 288.314C-63.0901 284.376 -62.5107 279.542 -65.7419 276.75C-69.9536 273.063 -76.884 275.959 -81.0956 279.647C-85.3073 283.334 -89.6527 287.981 -95.4243 287.877C-102.332 287.668 -106.566 280.105 -106.009 273.667C-105.452 267.229 -101.887 261.395 -99.9257 255.186C-97.6519 247.527 -97.822 239.413 -100.415 231.843C-103.008 224.273 -107.912 217.577 -114.522 212.578C-115.917 211.338 -117.767 210.645 -119.692 210.641C-122.678 210.932 -124.26 213.974 -126.377 216.037C-130.366 220.204 -137.162 220.808 -142.912 219.475C-148.661 218.141 -153.786 215.12 -159.157 212.745C-161.92 211.536 -165.129 210.495 -167.914 211.62C-172.371 213.391 -172.728 219.037 -175.29 222.85C-180.081 229.955 -191.179 229.371 -200.026 227.83C-217.853 224.725 -237.307 220.183 -247.379 206.161C-254.51 196.223 -257.229 181.555 -269.44 177.971C-277.663 175.575 -286.176 179.7 -294.777 180.846C-278.557 254.274 -232.6 318.995 -166.519 361.473C-100.438 403.95 -19.3508 420.895 59.7842 408.762C60.7597 403.951 60.1296 398.976 57.9792 394.511Z" fill="url(#paint2_radial_1_782)"/>
<path d="M271.55 163.219C262.48 158.865 259.405 147.301 250.246 143.093C242.781 139.655 233.823 142.259 226.313 145.614C213.474 151.367 201.807 159.172 191.84 168.678C189.696 170.483 188.019 172.72 186.937 175.22C185.645 178.762 186.67 182.617 187.249 186.326C188.51 194.467 187.598 202.774 184.594 210.506C181.589 218.238 176.586 225.155 170.03 230.641C163.474 236.127 155.569 240.013 147.018 241.95C138.467 243.888 129.536 243.818 121.021 241.747C117.656 240.934 113.712 239.893 111.015 241.935C109.652 243.157 108.725 244.743 108.364 246.477C106.336 253.373 106.291 260.707 104.085 267.562C101.879 274.417 96.5977 281.188 89.0211 282.146C84.7872 282.709 80.5755 281.375 76.3192 281.271C71.3096 281.134 66.4122 282.674 62.5089 285.613C58.6056 288.552 55.9529 292.698 55.0285 297.303C54.104 301.909 54.9687 306.672 57.4666 310.734C59.9645 314.797 63.9316 317.892 68.6535 319.462C82.3805 324.004 101.834 316.212 109.723 327.63C111.263 330.471 112.552 333.426 113.578 336.464C115.595 340.546 118.97 343.908 123.199 346.048C127.429 348.189 132.285 348.993 137.043 348.34C144.241 347.215 150.993 342.714 158.213 343.777C168.82 345.339 173.21 357.549 172.921 367.591V369.133C215.352 344.552 250.817 310.766 276.308 270.64C301.799 230.514 316.563 185.232 319.349 138.634L306.135 150.822C296.686 159.511 283.338 168.886 271.55 163.219Z" fill="url(#paint3_radial_1_782)"/>
<path d="M117.767 68.961C110.926 62.5646 104.219 53.4805 108.051 45.1673C110.436 39.9793 116.207 37.0415 120.375 32.9578C132.341 21.2067 127.06 -1.42019 110.792 -7.33738C104.976 -9.42089 98.5138 -9.62923 92.6977 -11.7544C86.8815 -13.8796 81.5558 -19.151 82.7814 -24.8598C83.8064 -29.3394 88.7089 -32.9856 87.8621 -37.5068C86.6587 -44.1115 75.3607 -45.0282 69.5891 -41.0487C47.5502 -25.7973 54.592 -13.4629 28.2522 -24.1305C18.269 -28.1725 8.1966 -13.713 8.1966 -3.46207C8.37444 1.64305 10.4902 6.5222 14.165 10.3017C17.8399 14.0812 22.8337 16.5142 28.2522 17.1648C21.411 25.0197 14.1464 34.6038 17.1102 44.3755C18.6701 49.6051 23.0601 54.0013 23.595 59.4184C24.7983 71.357 8.26352 77.3992 2.26911 87.9835C0.227223 91.5882 -0.528686 95.7088 0.111836 99.7436C0.752358 103.778 2.75567 107.516 5.82933 110.411C8.90299 113.306 12.886 115.206 17.1966 115.834C21.5072 116.462 25.9198 115.785 29.7899 113.902C32.1965 112.736 35.0265 111.069 37.3886 112.361C38.806 113.439 39.7499 114.966 40.0405 116.653C45.5446 133.758 62.9708 147.551 82.0683 147.635C89.7786 147.635 98.1796 145.072 102.124 138.821C105.065 133.987 104.731 127.987 106.96 122.82C112.241 110.485 130.915 104.839 132.007 91.5671C132.608 82.5663 124.586 75.3365 117.767 68.961Z" fill="url(#paint4_radial_1_782)"/>
<g style="mix-blend-mode:multiply" opacity="0.57">
<path d="M-21.7308 363.112C40.6124 360.937 100.639 340.456 149.826 304.575C199.013 268.695 234.862 219.239 252.282 163.229C269.702 107.218 267.809 47.5006 246.871 -7.4463C225.932 -62.3933 187.013 -109.777 135.639 -142.87C180.756 -124.086 220.429 -95.5087 251.363 -59.512C282.298 -23.5152 303.601 18.8623 313.503 64.1015C323.406 109.341 321.622 156.136 308.3 200.601C294.978 245.066 270.503 285.919 236.906 319.765C203.31 353.611 161.562 379.475 115.129 395.209C68.696 410.943 18.9186 416.092 -30.0698 410.229C-79.0582 404.367 -125.844 387.661 -166.541 361.5C-207.239 335.34 -240.674 300.478 -264.07 259.811C-235.097 293.514 -198.09 320.41 -156.01 338.347C-113.93 356.284 -67.944 364.765 -21.7308 363.112Z" fill="#D9872D"/>
</g>
<path opacity="0.46" d="M-260.482 57.6061C-238.466 89.0672 -152.739 73.0659 -69.0177 21.853C14.7035 -29.3598 64.6866 -96.3866 42.7145 -127.848C20.7424 -159.309 -65.0288 -143.307 -148.75 -92.0945C-232.471 -40.8816 -282.499 26.145 -260.482 57.6061Z" fill="#FEFBD5"/>
<defs>
<radialGradient id="paint0_radial_1_782" cx="0" cy="0" r="1" gradientUnits="userSpaceOnUse" gradientTransform="translate(9.37012 122.325) scale(389.993 364.636)">
<stop stop-color="#F2CF30"/>
<stop offset="1" stop-color="#F2CF30" stop-opacity="0"/>
</radialGradient>
<radialGradient id="paint1_radial_1_782" cx="0" cy="0" r="1" gradientUnits="userSpaceOnUse" gradientTransform="translate(-0.717053 144.822) scale(400.645 374.595)">
<stop stop-color="#E2A230"/>
<stop offset="1" stop-color="#E2A230" stop-opacity="0"/>
</radialGradient>
<radialGradient id="paint2_radial_1_782" cx="0" cy="0" r="1" gradientUnits="userSpaceOnUse" gradientTransform="translate(-0.717035 144.822) scale(400.645 374.595)">
<stop stop-color="#E2A230"/>
<stop offset="1" stop-color="#E2A230" stop-opacity="0"/>
</radialGradient>
<radialGradient id="paint3_radial_1_782" cx="0" cy="0" r="1" gradientUnits="userSpaceOnUse" gradientTransform="translate(-0.716813 144.822) scale(400.645 374.595)">
<stop stop-color="#E2A230"/>
<stop offset="1" stop-color="#E2A230" stop-opacity="0"/>
</radialGradient>
<radialGradient id="paint4_radial_1_782" cx="0" cy="0" r="1" gradientUnits="userSpaceOnUse" gradientTransform="translate(-0.716996 144.822) scale(400.645 374.596)">
<stop stop-color="#E2A230"/>
<stop offset="1" stop-color="#E2A230" stop-opacity="0"/>
</radialGradient>
</defs>
</svg>
