<svg width="75" height="72" viewBox="0 0 75 72" fill="none" xmlns="http://www.w3.org/2000/svg">
<g clip-path="url(#clip0_1_11222)">
<rect opacity="0.1" x="0.200928" y="0.416016" width="70" height="70" rx="35" fill="white"/>
</g>
<path d="M51.158 28.2979C52.6514 27.1779 53.9954 25.8338 55.0408 24.2657C53.6968 24.8631 52.1287 25.3111 50.5606 25.4605C52.2034 24.4898 53.3981 22.9963 53.9954 21.1296C52.502 22.0256 50.7846 22.6977 49.0672 23.071C47.5738 21.5029 45.5577 20.6069 43.3176 20.6069C38.9867 20.6069 35.4772 24.1164 35.4772 28.4473C35.4772 29.0447 35.5519 29.642 35.7012 30.2394C29.2049 29.866 23.3806 26.7299 19.4977 22.0256C18.8257 23.1457 18.4523 24.4898 18.4523 25.9832C18.4523 28.6713 19.7964 31.0608 21.9618 32.4795C20.6924 32.4048 19.423 32.1061 18.3777 31.5088V31.5834C18.3777 35.3916 21.0658 38.5278 24.65 39.2745C24.0526 39.4238 23.3059 39.5732 22.6339 39.5732C22.1112 39.5732 21.6632 39.4985 21.1405 39.4238C22.1112 42.56 25.0233 44.8001 28.4582 44.8748C25.77 46.9656 22.4099 48.2349 18.751 48.2349C18.079 48.2349 17.4816 48.1603 16.8843 48.0856C20.3191 50.3257 24.426 51.5951 28.9062 51.5951C43.3176 51.5951 51.158 39.7225 51.158 29.3433C51.158 28.97 51.158 28.6713 51.158 28.2979Z" fill="white"/>
<defs>
<clipPath id="clip0_1_11222">
<rect width="74.3253" height="71.2284" fill="white" transform="translate(0.200928 0.416016)"/>
</clipPath>
</defs>
</svg>
